<?xml version="1.0" standalone="no"?>
<!DOCTYPE svg PUBLIC "-//W3C//DTD SVG 20010904//EN"
 "http://www.w3.org/TR/2001/REC-SVG-20010904/DTD/svg10.dtd">
<svg version="1.0" xmlns="http://www.w3.org/2000/svg"
 width="1080.000000pt" height="1080.000000pt" viewBox="0 0 1080.000000 1080.000000"
 preserveAspectRatio="xMidYMid meet">
<metadata>
Created by potrace 1.14, written by Peter Selinger 2001-2017
</metadata>
<g transform="translate(0.000000,1080.000000) scale(0.100000,-0.100000)"
fill="#000000" stroke="none">
<path d="M0 5400 l0 -5400 5400 0 5400 0 0 5400 0 5400 -5400 0 -5400 0 0
-5400z m7090 3920 c11 -11 27 -20 35 -20 10 0 15 -10 15 -30 0 -16 5 -30 11
-30 19 0 36 -25 43 -63 4 -20 12 -37 17 -37 14 0 39 -26 39 -39 0 -6 5 -11 10
-11 6 0 10 -18 10 -40 0 -22 4 -40 9 -40 5 0 11 -19 15 -42 4 -23 12 -46 19
-50 16 -10 17 -435 1 -446 -6 -4 -14 -27 -17 -52 -3 -24 -11 -46 -16 -48 -6
-2 -11 -18 -11 -36 0 -20 -7 -37 -20 -46 -11 -8 -20 -20 -20 -27 0 -7 -6 -13
-14 -13 -10 0 -17 -16 -22 -45 -5 -36 -11 -46 -30 -51 -17 -4 -24 -13 -24 -30
0 -13 -5 -24 -11 -24 -18 0 -68 -56 -75 -85 -4 -15 -13 -25 -25 -25 -10 0 -29
-11 -43 -25 -14 -14 -32 -25 -40 -25 -8 0 -18 -9 -21 -20 -3 -11 -15 -20 -26
-20 -10 0 -19 -4 -19 -10 0 -5 -7 -10 -15 -10 -8 0 -15 -6 -15 -14 0 -9 -15
-17 -40 -21 -22 -4 -47 -13 -54 -21 -8 -8 -24 -14 -35 -14 -12 0 -21 -4 -21
-10 0 -5 -13 -10 -30 -10 -20 0 -30 -5 -30 -15 0 -11 -12 -15 -44 -15 -41 0
-44 -2 -50 -31 -3 -17 -6 -47 -6 -65 0 -19 -4 -34 -10 -34 -5 0 -10 -9 -10
-20 0 -34 -24 -100 -36 -100 -6 0 -14 -13 -17 -30 -4 -18 -13 -30 -22 -30 -9
0 -15 -9 -15 -21 0 -12 -13 -34 -30 -49 -16 -15 -30 -33 -30 -39 0 -7 -7 -14
-15 -17 -8 -4 -15 -10 -15 -16 0 -10 -45 -58 -55 -58 -11 0 -32 -25 -39 -47
-4 -12 -17 -25 -28 -29 -12 -3 -32 -17 -45 -30 -13 -13 -30 -24 -37 -24 -8 0
-16 -8 -18 -18 -4 -13 -26 -23 -82 -37 -42 -10 -76 -23 -76 -27 0 -4 -7 -8
-15 -8 -8 0 -15 -6 -15 -14 0 -9 -16 -17 -42 -21 -24 -4 -46 -12 -50 -18 -4
-7 -121 -13 -340 -18 -316 -6 -378 -11 -378 -29 0 -4 -13 -22 -30 -40 -16 -18
-30 -38 -30 -46 0 -8 -7 -14 -15 -14 -12 0 -15 -16 -15 -80 l0 -80 -177 2
-178 3 0 95 c1 119 12 190 29 190 14 0 26 30 26 67 0 13 8 24 20 28 11 3 20
13 20 21 0 8 5 14 10 14 6 0 10 7 10 15 0 8 5 15 10 15 6 0 10 4 10 10 0 19
35 50 57 50 18 0 23 6 23 25 0 14 5 25 11 25 6 0 17 7 25 15 9 8 33 18 55 21
21 4 39 10 39 15 0 5 23 9 50 9 38 0 50 4 50 15 0 13 36 15 263 15 252 0 388
11 395 31 2 5 19 9 38 9 19 0 34 5 34 10 0 6 11 10 25 10 14 0 25 5 25 10 0 6
7 10 15 10 8 0 15 6 15 13 0 8 12 20 28 28 15 8 31 20 35 26 4 7 15 13 22 13
8 0 15 6 15 13 0 7 11 23 25 35 14 12 25 26 25 32 0 5 6 10 14 10 8 0 17 14
21 30 4 17 18 42 31 55 15 15 24 36 24 55 0 16 5 30 10 30 6 0 10 16 10 35 0
24 5 35 15 35 13 0 15 23 15 150 l0 150 145 0 c90 0 145 4 145 10 0 6 9 10 20
10 11 0 20 4 20 9 0 5 18 12 40 16 22 4 47 13 54 21 8 8 19 14 25 14 6 0 11 5
11 10 0 6 9 10 19 10 11 0 22 9 26 19 3 11 15 23 26 26 10 4 19 11 19 16 0 5
7 9 15 9 17 0 65 43 65 57 0 5 9 15 20 23 11 8 23 30 26 49 7 33 12 42 42 76
6 7 12 25 12 39 0 14 5 26 10 26 6 0 10 55 10 145 0 90 -4 145 -10 145 -5 0
-10 16 -10 35 0 19 -4 35 -10 35 -5 0 -12 11 -16 25 -3 14 -10 25 -15 25 -5 0
-9 6 -9 13 0 21 -30 77 -41 77 -5 0 -9 7 -9 15 0 8 -5 15 -12 15 -6 0 5 14 25
31 21 17 37 38 37 45 0 8 4 14 9 14 5 0 12 9 16 19 3 11 15 23 26 26 10 4 19
13 19 21 0 8 4 14 8 14 4 0 13 14 19 30 8 20 18 30 32 30 12 0 24 7 27 15 8
19 10 19 34 -5z m-1136 -296 c3 -9 6 -91 6 -184 l0 -168 -77 -6 c-115 -10
-143 -17 -143 -32 0 -8 -10 -14 -25 -14 -14 0 -25 -4 -25 -8 0 -5 -27 -16 -60
-25 -33 -10 -60 -22 -60 -27 0 -6 -6 -10 -13 -10 -18 0 -57 -34 -57 -48 0 -7
-22 -22 -50 -34 -27 -13 -53 -31 -56 -41 -7 -22 -40 -57 -53 -57 -5 0 -13 -10
-17 -22 -4 -13 -15 -30 -25 -39 -11 -9 -19 -24 -19 -33 0 -9 -6 -16 -13 -16
-13 0 -47 -99 -47 -135 0 -8 -4 -15 -10 -15 -5 0 -10 -9 -10 -20 0 -11 -4 -20
-10 -20 -5 0 -10 -11 -10 -25 0 -16 -6 -25 -15 -25 -13 0 -15 -28 -15 -188 l0
-189 -177 -7 c-97 -3 -179 -10 -182 -15 -4 -5 -30 -12 -58 -16 -32 -4 -53 -12
-53 -19 0 -7 -23 -18 -51 -24 -28 -7 -57 -19 -65 -27 -9 -8 -25 -15 -36 -15
-11 0 -22 -8 -25 -20 -3 -11 -9 -20 -14 -20 -4 0 -16 -8 -26 -19 -10 -10 -30
-21 -44 -25 -17 -4 -29 -15 -33 -31 -4 -14 -13 -25 -21 -25 -8 0 -15 -4 -15
-10 0 -5 -5 -10 -11 -10 -16 0 -38 -31 -39 -52 0 -10 -6 -18 -14 -18 -7 0 -19
-13 -26 -30 -7 -16 -19 -30 -26 -30 -8 0 -14 -11 -14 -26 0 -17 -6 -28 -19
-31 -14 -3 -22 -17 -26 -44 -4 -22 -14 -46 -22 -54 -9 -10 -19 -52 -26 -110
-6 -52 -15 -95 -19 -95 -4 0 -8 -45 -8 -100 l0 -100 -181 0 -182 0 5 177 c3
121 9 178 17 181 6 2 11 15 11 28 0 14 6 24 14 24 9 0 15 16 19 46 2 26 9 49
15 53 5 3 12 22 15 41 7 46 30 110 39 110 5 0 8 6 8 13 0 7 9 19 20 27 11 8
20 22 20 32 0 22 20 60 38 71 6 4 12 15 12 22 0 8 4 15 9 15 5 0 12 9 16 19 3
10 17 22 31 25 14 4 28 14 31 24 3 9 12 24 20 32 76 85 102 110 116 110 10 0
17 5 17 10 0 6 7 10 16 10 18 0 44 23 44 39 0 6 5 11 11 11 7 0 19 9 28 19 9
10 35 25 59 32 23 6 42 18 42 26 0 7 9 13 20 13 11 0 20 5 20 10 0 6 14 10 30
10 17 0 30 5 30 10 0 6 9 10 20 10 11 0 20 5 20 10 0 6 23 10 50 10 28 0 50 5
50 10 0 6 18 10 40 10 22 0 40 5 40 10 0 6 14 10 30 10 23 0 30 4 30 20 0 11
5 20 10 20 6 0 10 14 10 30 0 17 4 30 8 30 4 0 13 37 20 82 7 46 16 84 22 86
5 2 10 10 10 18 0 8 5 14 10 14 6 0 10 16 10 35 0 24 5 35 14 35 14 0 26 29
40 92 3 15 15 30 26 33 11 3 20 15 20 26 0 10 7 19 15 19 9 0 18 12 22 30 3
17 11 30 17 30 15 0 66 45 66 59 0 6 9 16 20 23 11 7 20 18 20 25 0 7 7 13 15
13 8 0 15 4 15 8 0 5 11 14 24 20 13 6 27 20 31 31 3 12 14 21 23 21 10 0 24
9 32 20 8 11 20 20 26 20 7 0 14 6 17 14 3 8 19 17 36 21 17 4 31 13 31 21 0
8 10 14 25 14 14 0 25 4 25 10 0 5 18 15 40 21 22 7 40 15 40 19 0 4 16 11 35
14 19 4 35 13 35 20 0 15 179 46 269 46 34 0 61 4 61 10 0 16 17 12 24 -6z
m-270 -3111 c5 -225 11 -410 16 -413 4 -3 10 -90 14 -195 4 -104 12 -191 17
-193 5 -2 9 -37 9 -78 0 -55 3 -74 14 -74 14 0 26 -116 26 -257 0 -42 4 -73
10 -73 6 0 10 -22 10 -50 0 -42 3 -50 18 -50 17 0 20 -15 32 -135 7 -74 16
-135 20 -135 4 0 13 -47 20 -105 7 -58 17 -105 21 -105 4 0 11 -31 15 -70 3
-38 10 -70 14 -70 4 0 11 -25 15 -55 3 -30 10 -55 14 -55 8 0 14 -31 28 -142
3 -27 11 -48 17 -48 6 0 17 -30 24 -67 7 -37 17 -70 21 -73 5 -3 12 -29 16
-57 4 -34 12 -53 20 -53 8 0 18 -25 26 -70 7 -38 16 -70 21 -70 4 0 8 -9 8
-20 0 -11 5 -20 10 -20 6 0 10 -20 10 -45 0 -25 5 -45 10 -45 6 0 10 -7 10
-15 0 -8 6 -15 13 -15 8 0 20 -31 32 -85 10 -47 22 -85 27 -85 4 0 8 -9 8 -20
0 -11 7 -20 15 -20 11 0 15 -11 15 -40 0 -22 5 -40 10 -40 6 0 10 -63 10 -170
l0 -170 861 0 861 0 -4 97 c-3 63 -8 98 -16 101 -7 2 -12 12 -12 23 0 10 -4
19 -9 19 -5 0 -14 27 -22 60 -7 33 -16 60 -20 60 -4 0 -11 20 -15 45 -3 25
-10 45 -14 45 -4 0 -13 34 -20 75 -8 49 -17 75 -26 75 -8 0 -16 19 -20 50 -4
28 -10 50 -15 50 -5 0 -9 11 -9 25 0 14 -4 25 -9 25 -5 0 -12 22 -16 50 -4 28
-11 50 -16 50 -5 0 -9 18 -9 40 0 22 -4 40 -9 40 -4 0 -11 31 -15 69 -4 38
-11 71 -16 73 -8 3 -50 356 -50 428 0 29 -4 40 -15 40 -12 0 -15 13 -15 55 0
30 -4 55 -10 55 -6 0 -10 77 -10 210 0 180 -2 210 -15 210 -12 0 -15 15 -15
75 l0 75 -540 0 -540 0 0 -110 c0 -67 -4 -110 -10 -110 -6 0 -10 -29 -10 -67
0 -148 -24 -443 -36 -443 -8 0 -14 -31 -19 -95 -6 -71 -11 -95 -21 -95 -11 0
-14 -20 -14 -90 0 -53 -4 -90 -10 -90 -5 0 -10 -16 -10 -35 0 -19 -4 -35 -10
-35 -5 0 -10 -13 -10 -30 0 -16 -4 -30 -9 -30 -5 0 -12 -34 -16 -75 -9 -92
-29 -102 -40 -20 -3 30 -11 55 -16 55 -5 0 -9 23 -9 50 0 38 -4 50 -15 50 -9
0 -15 9 -15 24 0 13 -4 26 -10 28 -5 2 -17 49 -26 106 -12 70 -21 102 -31 102
-8 0 -13 12 -13 35 0 19 -4 35 -10 35 -5 0 -10 25 -10 55 0 30 -4 55 -10 55
-5 0 -10 16 -10 35 0 19 -4 35 -10 35 -5 0 -10 18 -10 40 0 22 5 40 10 40 6 0
10 30 10 70 0 40 4 70 10 70 7 0 10 142 10 405 l0 405 903 0 904 0 6 -367 c4
-242 10 -369 17 -371 6 -2 10 -37 10 -83 0 -43 4 -79 9 -79 5 0 12 -54 16
-120 4 -66 10 -120 15 -120 4 0 11 -37 15 -82 4 -46 10 -85 14 -88 4 -3 12
-54 19 -115 7 -60 16 -111 22 -113 5 -2 10 -19 10 -38 0 -24 5 -34 15 -34 12
0 15 -13 15 -59 0 -76 9 -121 25 -121 8 0 16 -20 20 -50 4 -28 11 -50 16 -50
5 0 9 -11 9 -25 0 -14 6 -25 13 -25 9 0 21 -37 36 -112 12 -62 26 -115 30
-118 5 -3 12 -22 16 -43 4 -20 13 -37 19 -37 21 0 36 -88 36 -215 l0 -125 184
0 c101 0 191 -3 200 -6 14 -5 16 -58 16 -490 l0 -484 -3360 0 -3360 0 0 490 0
490 155 0 155 0 0 165 c0 133 3 165 14 165 8 0 16 16 19 42 3 24 11 44 16 46
6 2 11 24 11 48 0 24 4 44 9 44 6 0 13 20 17 45 3 25 10 45 15 45 5 0 9 7 9
15 0 8 5 15 10 15 6 0 10 7 10 15 0 8 5 15 10 15 6 0 10 20 10 45 0 25 4 45 9
45 6 0 13 20 17 45 3 25 10 45 15 45 5 0 9 11 9 25 0 14 5 25 10 25 6 0 10 14
10 30 0 17 5 30 10 30 6 0 10 9 10 20 0 11 4 20 8 20 5 0 14 29 21 65 7 36 17
65 22 65 5 0 9 14 9 30 0 17 4 30 9 30 4 0 11 25 14 57 3 31 10 59 15 62 5 3
14 45 22 94 7 48 17 87 22 87 4 0 8 14 8 30 0 17 4 30 9 30 5 0 12 34 16 75 4
41 10 75 15 75 4 0 11 32 15 70 4 39 11 70 16 70 5 0 9 18 9 40 0 22 5 40 10
40 6 0 10 38 10 95 0 57 4 95 10 95 6 0 10 23 10 50 0 28 5 50 10 50 6 0 10
42 10 105 0 63 4 105 10 105 6 0 10 27 10 60 0 43 4 60 13 60 10 0 16 49 25
203 7 111 12 232 12 270 0 38 4 67 10 67 6 0 10 68 10 185 0 117 4 185 10 185
6 0 10 82 10 225 l0 225 1334 0 1333 0 7 -407z m1796 -1558 l0 -75 -400 0
-400 0 0 75 0 75 400 0 400 0 0 -75z"/>
<path d="M3550 5570 l0 -50 790 0 790 0 0 50 0 50 -790 0 -790 0 0 -50z"/>
<path d="M4250 4891 c0 -4 -32 -11 -72 -15 -40 -4 -75 -10 -78 -15 -3 -5 -20
-12 -37 -16 -18 -3 -33 -10 -33 -14 0 -4 -22 -13 -50 -20 -27 -7 -50 -18 -50
-25 0 -7 -18 -19 -40 -26 -27 -9 -44 -22 -52 -42 -9 -20 -24 -31 -49 -38 -31
-9 -40 -18 -58 -60 -13 -30 -28 -50 -37 -50 -9 0 -18 -9 -21 -20 -3 -11 -9
-20 -14 -20 -5 0 -9 -5 -9 -11 0 -6 -7 -17 -15 -25 -8 -9 -15 -24 -15 -35 0
-10 -4 -19 -10 -19 -5 0 -10 -11 -10 -25 0 -14 -5 -25 -11 -25 -29 0 -37 -25
-56 -157 -3 -24 -10 -43 -14 -43 -5 0 -9 -58 -9 -130 0 -71 4 -130 9 -130 5 0
12 -27 16 -60 4 -33 13 -67 21 -75 8 -7 14 -25 14 -39 0 -14 5 -26 11 -26 21
0 39 -29 39 -64 0 -32 20 -66 40 -66 5 0 12 -16 16 -35 4 -25 11 -35 25 -35
11 0 19 -4 19 -8 0 -11 55 -72 65 -72 5 0 15 -7 24 -15 9 -8 26 -23 39 -35 12
-11 27 -20 33 -20 6 0 17 -6 24 -12 34 -31 45 -38 69 -44 16 -4 26 -13 26 -24
0 -18 41 -30 103 -30 15 0 27 -4 27 -10 0 -5 18 -10 40 -10 22 0 40 -4 40 -10
0 -6 52 -10 135 -10 83 0 135 4 135 10 0 6 16 10 35 10 19 0 35 5 35 10 0 6
15 10 34 10 60 0 96 11 96 30 0 12 10 20 31 24 16 3 36 11 44 18 34 31 45 38
57 38 7 0 19 9 26 20 7 11 21 20 32 20 11 0 20 7 20 15 0 8 7 15 15 15 8 0 15
4 15 9 0 13 76 91 89 91 6 0 14 14 18 30 3 17 12 30 19 30 8 0 16 11 20 25 3
14 10 25 15 25 5 0 9 9 9 21 0 11 7 27 15 35 8 9 15 28 15 44 0 16 7 35 15 44
10 9 15 34 15 70 0 43 3 56 15 56 13 0 15 21 15 130 0 109 -2 130 -15 130 -12
0 -15 14 -15 70 0 39 -4 70 -8 70 -5 0 -14 25 -21 55 -7 30 -17 55 -22 55 -5
0 -9 5 -9 10 0 6 -9 19 -20 30 -11 11 -24 20 -30 20 -5 0 -10 14 -10 31 0 22
-5 32 -20 36 -11 3 -20 12 -20 20 0 16 -24 43 -38 43 -5 0 -14 11 -20 25 -6
14 -18 25 -27 25 -8 0 -15 9 -15 20 0 13 -7 20 -20 20 -10 0 -24 8 -29 19 -6
10 -24 21 -41 24 -18 4 -30 13 -30 22 0 9 -17 19 -45 27 -25 7 -45 15 -45 19
0 4 -19 10 -42 14 -24 4 -46 12 -49 17 -3 5 -34 12 -68 15 -33 3 -61 10 -61
14 0 5 -47 9 -105 9 -58 0 -105 -4 -105 -9z m210 -231 c0 -5 11 -10 25 -10 14
0 25 -4 25 -10 0 -5 18 -10 40 -10 22 0 40 -4 40 -10 0 -5 9 -10 20 -10 11 0
20 -6 20 -13 0 -8 20 -22 45 -33 31 -12 48 -26 51 -41 4 -13 13 -23 21 -23 21
0 103 -87 103 -110 0 -11 5 -20 10 -20 6 0 10 -7 10 -15 0 -8 5 -15 10 -15 6
0 10 -13 10 -30 0 -19 5 -30 14 -30 20 0 26 -31 33 -177 6 -140 -9 -253 -34
-253 -8 0 -13 -12 -13 -30 0 -16 -4 -30 -10 -30 -5 0 -10 -7 -10 -15 0 -9 -9
-25 -20 -37 -11 -12 -20 -28 -20 -35 0 -7 -4 -13 -10 -13 -5 0 -10 -7 -10 -15
0 -8 -9 -15 -20 -15 -15 0 -20 -7 -20 -25 0 -19 -5 -25 -21 -25 -12 0 -23 -8
-26 -20 -3 -11 -14 -20 -23 -20 -10 0 -22 -9 -25 -20 -5 -15 -15 -20 -41 -20
-19 0 -34 -4 -34 -9 0 -5 -15 -13 -32 -16 -18 -4 -36 -13 -40 -19 -10 -16
-346 -15 -356 1 -4 6 -24 14 -45 18 -20 4 -37 11 -37 16 0 5 -9 9 -20 9 -11 0
-20 5 -20 10 0 6 -11 10 -25 10 -18 0 -26 7 -31 25 -4 18 -15 28 -35 32 -20 4
-31 13 -35 29 -4 15 -14 24 -25 24 -12 0 -19 7 -19 20 0 10 -11 30 -25 44 -14
14 -25 36 -25 49 0 14 -7 27 -15 31 -8 3 -15 15 -15 26 0 11 -7 20 -15 20 -9
0 -15 9 -15 24 0 13 -6 26 -12 29 -18 6 -18 339 0 345 6 2 12 10 12 18 0 8 7
14 15 14 9 0 18 12 22 30 3 17 9 30 13 30 4 0 13 20 19 45 6 25 18 48 26 51 8
4 15 12 15 20 0 8 4 14 8 14 11 0 52 35 52 44 0 19 53 50 103 60 15 4 27 11
27 17 0 21 29 39 64 39 20 0 36 5 36 10 0 6 11 10 25 10 14 0 25 5 25 10 0 6
47 10 120 10 73 0 120 -4 120 -10z"/>
<path d="M4074 4467 c-10 -6 -25 -17 -32 -24 -7 -7 -20 -13 -28 -13 -8 0 -14
-4 -14 -8 0 -5 -9 -19 -20 -32 -11 -13 -20 -29 -20 -35 0 -7 -6 -15 -14 -18
-7 -3 -16 -21 -20 -41 -4 -22 -14 -37 -26 -41 -14 -4 -20 -15 -20 -35 0 -16
-4 -30 -9 -32 -4 -1 -10 -27 -13 -55 l-5 -53 52 0 c28 0 99 -3 157 -6 l105 -7
7 47 c5 28 12 46 21 46 7 0 16 11 19 25 4 15 13 25 25 25 14 0 17 6 13 25 -2
14 -10 25 -17 25 -7 0 -15 7 -19 15 -3 8 -12 15 -20 15 -9 0 -17 15 -21 39 -4
22 -15 49 -25 61 -10 12 -22 34 -25 50 -7 33 -24 42 -51 27z"/>
<path d="M4583 4473 c-6 -2 -17 -26 -24 -54 -9 -35 -18 -49 -30 -49 -12 0 -19
-11 -24 -40 -4 -22 -11 -40 -16 -40 -5 0 -9 -7 -9 -15 0 -8 -4 -15 -9 -15 -15
0 -19 -50 -5 -65 8 -7 14 -18 14 -24 0 -6 4 -11 9 -11 6 0 13 -20 17 -45 l6
-45 163 0 164 0 -6 58 c-3 31 -10 59 -15 60 -4 2 -8 16 -8 32 0 20 -6 31 -20
35 -15 5 -20 15 -20 40 0 24 -5 35 -19 40 -10 3 -22 17 -25 30 -4 14 -13 25
-21 25 -8 0 -15 4 -15 9 0 6 -12 23 -27 39 -28 29 -58 42 -80 35z"/>
<path d="M4300 4135 c0 -8 -6 -15 -14 -15 -18 0 -29 -57 -15 -83 18 -32 56
-67 75 -67 9 0 29 14 44 30 15 17 32 30 38 30 15 0 20 21 15 58 -4 26 -10 32
-29 32 -15 0 -24 6 -24 15 0 11 -12 15 -45 15 -33 0 -45 -4 -45 -15z"/>
<path d="M4258 3878 c-6 -15 -16 -28 -24 -28 -7 0 -16 -11 -20 -24 -3 -13 -14
-26 -25 -29 -12 -3 -19 -14 -19 -30 0 -14 -6 -32 -13 -39 -19 -19 -39 -82 -32
-100 5 -12 29 -18 96 -23 66 -5 89 -11 89 -21 0 -10 12 -14 40 -14 27 0 40 4
40 14 0 10 23 16 84 21 63 5 86 11 91 22 8 22 -14 84 -37 104 -10 9 -18 26
-18 38 0 12 -7 24 -15 27 -8 4 -15 17 -15 30 0 13 -4 24 -9 24 -5 0 -12 11
-15 25 -5 21 -12 25 -45 25 -22 0 -42 -6 -44 -12 -4 -10 -8 -10 -14 -2 -4 6
-25 13 -47 16 -35 4 -39 2 -48 -24z"/>
<path d="M3191 3008 c-1 -16 -5 -28 -10 -28 -4 0 -14 -34 -21 -75 -7 -41 -17
-75 -21 -75 -5 0 -9 -9 -9 -20 0 -11 -4 -20 -10 -20 -5 0 -10 -11 -10 -24 0
-13 -5 -26 -10 -28 -6 -2 -13 -27 -17 -56 -3 -28 -10 -52 -14 -52 -5 0 -9 -13
-9 -30 0 -16 -4 -30 -10 -30 -5 0 -10 -16 -10 -35 0 -24 -5 -35 -15 -35 -10 0
-15 -10 -15 -29 0 -16 -6 -32 -12 -34 -7 -3 223 -5 512 -5 289 0 515 3 503 5
-13 2 -23 11 -23 19 0 7 -11 16 -25 20 -14 3 -25 10 -25 14 0 5 -10 12 -22 15
-68 20 -107 41 -113 62 -4 16 -13 23 -31 23 -14 0 -27 7 -31 18 -9 22 -23 32
-50 32 -14 0 -23 6 -23 15 0 8 -9 15 -20 15 -11 0 -20 5 -20 10 0 6 -12 16
-27 23 -29 12 -33 15 -72 47 -13 11 -29 20 -36 20 -6 0 -17 11 -23 25 -6 14
-15 25 -20 25 -5 0 -19 9 -32 20 -13 11 -29 20 -37 20 -7 0 -13 4 -13 8 0 5
-11 14 -25 20 -14 6 -25 18 -25 27 0 8 -7 15 -15 15 -9 0 -21 11 -27 25 -6 14
-17 25 -25 25 -7 0 -16 7 -19 15 -4 8 -12 15 -19 15 -7 0 -16 6 -18 13 -3 6
-6 0 -6 -15z"/>
</g>
</svg>
